# xmcd CD database file
#
# Track frame offsets:
#	150
#	23967
#	34757
#	47772
#	58222
#	72327
#	83887
#	96190
#	104687
#	120407
#	133577
#	159530
#	196017
#	211592
#	237272
#	250572
#
# Disc length: 3482 seconds
#
# Revision: 0
# Processed by: cddbd v1.5.1PL0 Copyright (c) Steve Scherf et al.
# Submitted via: CDex 1.51
#
DISCID=d50d9810
DTITLE=feel beet - telephone
DYEAR=1990
DGENRE=Jazz
TTITLE0=The girl from Ipanema
TTITLE1=Jazz samba (So danco samba)
TTITLE2=Agua de beber
TTITLE3=One note samba
TTITLE4=Summer samba(So nice)
TTITLE5=A man and a woman
TTITLE6=The days of wine and roses
TTITLE7=Just in time
TTITLE8=There's a lull in my life
TTITLE9=Makin' whoopee
TTITLE10=Birk's works
TTITLE11=Take the "A"train
TTITLE12=I've got you under my skin
TTITLE13=Menina moca(Young lady)
TTITLE14=Insensatez(How insensitive)
TTITLE15=Csll me
EXTD=YEAR: 1990
EXTT0=
EXTT1=
EXTT2=
EXTT3=
EXTT4=
EXTT5=
EXTT6=
EXTT7=
EXTT8=
EXTT9=
EXTT10=
EXTT11=
EXTT12=
EXTT13=
EXTT14=
EXTT15=
PLAYORDER=
